<svg width="22" height="18" viewBox="0 0 22 18" fill="none" xmlns="http://www.w3.org/2000/svg">
<path d="M17.43 18C14.56 18 13.06 15.33 12.55 14.18H9.44999C8.93999 15.37 7.43999 18 4.56999 18C0.679993 18 0.679993 14.73 0.679993 13.34C0.679993 11.65 3.37999 6.34 3.91999 5.34C3.99263 5.23013 4.09258 5.14102 4.21004 5.08142C4.3275 5.02181 4.45843 4.99376 4.58999 5H17.41C17.5484 5.00084 17.684 5.03948 17.8021 5.11173C17.9201 5.18399 18.0162 5.28712 18.08 5.41C18.62 6.41 21.32 11.73 21.32 13.41C21.32 14.77 21.32 18 17.43 18ZM8.93999 12.72H13.06C13.2172 12.7186 13.3707 12.7673 13.4984 12.859C13.626 12.9506 13.7211 13.0806 13.77 13.23C13.77 13.23 14.93 16.54 17.43 16.54C19.65 16.54 19.82 15.23 19.82 13.38C19.82 12.46 18.21 8.92 16.95 6.46H5.04999C3.78999 8.92 2.17999 12.46 2.17999 13.38C2.17999 15.23 2.34999 16.54 4.56999 16.54C7.06999 16.54 8.21999 13.26 8.22999 13.23C8.27884 13.0806 8.37398 12.9506 8.50164 12.859C8.62929 12.7673 8.78282 12.7186 8.93999 12.72Z" fill="#87B0D1"/>
<path d="M11 6.46002C10.8248 6.46076 10.6549 6.40017 10.5198 6.28874C10.3846 6.17732 10.2927 6.02211 10.26 5.85002C10.1603 5.20468 10.1903 4.54593 10.3482 3.91233C10.5062 3.27873 10.789 2.683 11.18 2.16002C11.7217 1.58541 12.3862 1.14043 13.1237 0.858216C13.8613 0.575998 14.653 0.463813 15.44 0.530016C15.5385 0.530016 15.636 0.549416 15.727 0.587107C15.818 0.624798 15.9007 0.680042 15.9703 0.749686C16.04 0.81933 16.0952 0.90201 16.1329 0.993004C16.1706 1.084 16.19 1.18152 16.19 1.28002C16.19 1.37851 16.1706 1.47603 16.1329 1.56703C16.0952 1.65802 16.04 1.7407 15.9703 1.81035C15.9007 1.87999 15.818 1.93524 15.727 1.97293C15.636 2.01062 15.5385 2.03002 15.44 2.03002C14.8757 1.97252 14.3057 2.03942 13.7701 2.22602C13.2345 2.41261 12.7464 2.71436 12.34 3.11002C11.8291 3.82526 11.6142 4.71013 11.74 5.58002C11.7572 5.67721 11.7551 5.77686 11.7338 5.87324C11.7125 5.96962 11.6723 6.06084 11.6156 6.14167C11.559 6.2225 11.4869 6.29134 11.4035 6.34425C11.3202 6.39717 11.2272 6.43311 11.13 6.45002L11 6.46002Z" fill="#87B0D1"/>
</svg>
