<svg width="22" height="16" viewBox="0 0 22 16" fill="none" xmlns="http://www.w3.org/2000/svg">
<path  class="path" d="M17.53 15.24H4.4C4.24283 15.2414 4.0893 15.1927 3.96164 15.101C3.83399 15.0094 3.73885 14.8794 3.69 14.73L0.500002 5C0.451129 4.86009 0.446 4.70861 0.485298 4.56571C0.524595 4.42281 0.606458 4.29525 0.720002 4.2C0.832145 4.10161 0.97141 4.03941 1.11953 4.02157C1.26764 4.00372 1.4177 4.03106 1.55 4.1L7.37 7L10.37 1.18C10.4392 1.06398 10.5373 0.967898 10.6547 0.901177C10.7722 0.834456 10.9049 0.799377 11.04 0.799377C11.1751 0.799377 11.3078 0.834456 11.4253 0.901177C11.5427 0.967898 11.6408 1.06398 11.71 1.18L14.71 7.01L20.54 4.11C20.6708 4.0419 20.8191 4.01501 20.9655 4.03286C21.1119 4.05071 21.2494 4.11247 21.36 4.21C21.4557 4.31491 21.5197 4.44486 21.5445 4.58471C21.5693 4.72456 21.5539 4.86858 21.5 5L18.24 14.72C18.1929 14.8713 18.0985 15.0034 17.9707 15.097C17.8429 15.1906 17.6884 15.2407 17.53 15.24V15.24ZM5 13.74H17L19.51 6.25L14.64 8.67C14.5528 8.71462 14.4576 8.74148 14.3599 8.74902C14.2623 8.75656 14.1641 8.74464 14.0711 8.71394C13.978 8.68325 13.892 8.63439 13.818 8.57019C13.744 8.506 13.6835 8.42776 13.64 8.34L11 3.16L8.37 8.34C8.32648 8.42776 8.26597 8.506 8.19197 8.57019C8.11798 8.63439 8.03198 8.68325 7.93895 8.71394C7.84593 8.74464 7.74774 8.75656 7.65007 8.74902C7.5524 8.74148 7.45721 8.71462 7.37 8.67L2.48 6.22L5 13.74Z" fill="#87B0D1"/>
</svg>
